<?xml version="1.0" encoding="UTF-8"?>
<svg xmlns="http://www.w3.org/2000/svg" xmlns:xlink="http://www.w3.org/1999/xlink" width="100pt" height="100pt" viewBox="0 0 100 100" version="1.1">
<g id="surface1">
<path style=" stroke:none;fill-rule:nonzero;fill:rgb(100%,45.882353%,48.627451%);fill-opacity:1;" d="M 50 100 C 77.539062 100 100 77.539062 100 50 C 100 22.460938 77.539062 0 50 0 C 22.460938 0 0 22.460938 0 50 C 0 77.539062 22.460938 100 50 100 Z M 50 100 "/>
<path style=" stroke:none;fill-rule:nonzero;fill:rgb(5.490196%,47.058824%,52.54902%);fill-opacity:1;" d="M 50 24.929688 C 74.441406 24.929688 94.25 44.742188 94.25 69.179688 C 94.25 70.714844 94.171875 72.230469 94.023438 73.726562 C 85.570312 89.371094 69.027344 100 50 100 C 30.972656 100 14.429688 89.371094 5.980469 73.726562 C 5.828125 72.230469 5.746094 70.714844 5.746094 69.179688 C 5.746094 44.738281 25.558594 24.929688 50 24.929688 Z M 50 24.929688 "/>
<path style=" stroke:none;fill-rule:nonzero;fill:rgb(8.235294%,74.117647%,69.411765%);fill-opacity:1;" d="M 77.648438 34.632812 C 85.878906 41.226562 91.699219 50.695312 93.589844 61.519531 C 93.457031 61.316406 93.320312 61.046875 93.183594 60.648438 C 92.320312 60.929688 92.292969 60.953125 91.269531 61.125 L 91.226562 61.1875 C 90.820312 61.765625 91.246094 61.519531 90.53125 62.121094 C 89.683594 62.835938 89.132812 63.8125 88.183594 64.390625 C 88.066406 65.402344 88.265625 65.628906 88.011719 66.828125 C 87.914062 67.273438 87.417969 68.464844 86.835938 68.375 C 86.652344 68.339844 85.871094 66.410156 85.6875 65.878906 C 85.375 64.96875 85.023438 64.300781 84.796875 63.257812 C 84.667969 62.699219 84.582031 61.632812 84.457031 61.257812 C 83.847656 61.347656 83.875 61.734375 83.292969 61.328125 C 82.882812 61.03125 83.066406 60.851562 82.839844 60.410156 C 82.359375 59.953125 81.863281 59.5 81.367188 59.046875 C 80.984375 58.921875 79.511719 59.136719 78.886719 59.070312 C 77.765625 58.964844 77.667969 59.035156 77.003906 58.140625 C 75.828125 58.195312 75.925781 58.636719 74.777344 57.652344 C 74.027344 57.015625 74.167969 55.996094 73.078125 56.574219 C 73.035156 57.503906 73.488281 57.710938 73.898438 58.140625 C 74.195312 58.46875 74.566406 58.695312 74.722656 59.136719 C 74.734375 59.148438 74.808594 59.566406 74.820312 59.625 C 75.882812 59.695312 76.136719 59.183594 76.71875 58.753906 C 77.285156 59.285156 76.734375 59.378906 77.554688 59.796875 C 78.207031 60.125 78.078125 59.933594 78.503906 60.464844 C 78.714844 61.179688 77.046875 63.121094 76.492188 63.472656 C 76.066406 63.742188 75.839844 63.585938 75.457031 63.902344 C 74.890625 64.378906 75.53125 64.3125 74.539062 64.671875 C 73.476562 65.058594 72.425781 65.875 71.308594 65.945312 C 71.066406 65.285156 70.824219 64.617188 70.585938 63.949219 C 69.875 61.667969 69.90625 62.550781 69.179688 61.371094 C 68.839844 60.859375 68.984375 60.53125 68.757812 60.078125 C 68.597656 59.738281 68.359375 59.589844 68.144531 59.171875 C 67.820312 58.527344 67.4375 57.515625 66.6875 57.617188 C 66.53125 58.128906 67.382812 59.851562 67.59375 60.273438 C 67.804688 60.691406 68.144531 60.875 68.246094 61.476562 C 68.386719 62.300781 68.21875 62.199219 68.671875 62.753906 C 69.621094 63.898438 68.628906 63.695312 70.101562 64.820312 C 71.207031 65.660156 70.921875 65.910156 71.390625 67.03125 C 72.113281 67.234375 74.265625 66.273438 74.632812 66.554688 C 75.074219 67.339844 74.125 68.585938 73.882812 69.265625 C 73.089844 71.546875 71.703125 71.515625 70.640625 73.261719 C 70.058594 74.203125 69.789062 74.328125 69.25 75.460938 C 68.640625 76.746094 70.484375 80.296875 69.378906 81.78125 C 69.136719 82.121094 68.359375 82.328125 67.382812 83.359375 C 66.347656 84.480469 67.410156 84.289062 67.011719 86.160156 C 66.703125 86.59375 66.320312 86.613281 65.9375 86.921875 C 65.796875 87.363281 65.910156 87.714844 65.667969 88.261719 C 65.410156 88.917969 65.371094 88.566406 65 89.101562 C 64.730469 89.519531 64.761719 89.6875 64.449219 90.074219 C 64.179688 90.429688 64.035156 90.527344 63.785156 90.757812 C 62.550781 91.890625 59.902344 91.925781 59.675781 91.765625 C 59.050781 91.234375 59.476562 91.097656 59.320312 90.347656 C 59.167969 89.691406 58.820312 89.140625 58.527344 88.632812 L 58.5 88.578125 C 58.359375 88.328125 58.230469 88.089844 58.160156 87.863281 C 57.648438 86.253906 57.832031 85.027344 56.941406 83.394531 C 55.820312 81.285156 57.5625 80.183594 57.492188 78.992188 C 57.464844 78.675781 57.351562 78.480469 57.320312 78.230469 C 57.109375 76.914062 56.984375 75.734375 56.105469 74.703125 C 55.140625 73.582031 55.269531 73.976562 55.578125 72.128906 C 55.976562 70.007812 55.070312 70.550781 53.792969 70.496094 C 53.171875 68.566406 51.953125 69.507812 50.734375 70.074219 C 49.96875 70.425781 49.6875 69.972656 48.820312 70.097656 C 46.894531 70.359375 48.410156 71.1875 45.832031 69.144531 C 44.753906 68.292969 45.476562 68.726562 44.839844 67.660156 C 44.628906 67.273438 43.976562 66.761719 43.675781 66.375 C 42.699219 65.152344 43.863281 63.914062 43.691406 62.507812 C 43.394531 59.898438 42.96875 62.167969 44.429688 59.011719 C 45.195312 57.332031 46.355469 57.324219 46.652344 56.574219 C 46.910156 55.90625 46.738281 55.429688 47.21875 54.816406 C 47.644531 54.316406 48.253906 54.417969 48.496094 53.636719 C 48.835938 52.671875 48.183594 52.546875 47.476562 52.523438 C 47.179688 51.515625 47.179688 51.761719 47.40625 50.832031 C 47.53125 50.308594 47.417969 50.058594 47.53125 49.539062 C 47.816406 48.234375 50.039062 49.527344 50.679688 48.992188 C 50.976562 48.4375 51.019531 47.894531 50.679688 47.359375 C 50.324219 46.828125 49.855469 46.894531 49.617188 46.386719 C 50.152344 46.023438 49.757812 46.339844 50.226562 46.238281 C 50.777344 46.113281 50.707031 45.953125 51.359375 45.828125 C 51.9375 45.714844 52.308594 45.183594 52.875 44.820312 C 53.679688 44.296875 53.300781 43.832031 54.277344 43.675781 C 55.847656 43.402344 54.828125 43.445312 55 41.984375 C 55.242188 41.894531 55.464844 41.789062 55.691406 41.6875 C 56.1875 42.335938 55.566406 42.074219 56.160156 42.503906 C 56.316406 42.414062 56.5 42.324219 56.671875 42.234375 C 56.585938 41.527344 56.261719 41.664062 56.046875 40.792969 C 55.269531 40.917969 54.984375 41.574219 54.363281 41.335938 C 53.753906 41.109375 53.722656 40.238281 53.753906 39.511719 C 53.980469 38.964844 55.113281 38.671875 55.550781 38.535156 C 56.261719 38.296875 56.160156 37.820312 56.8125 37.171875 C 57.664062 36.320312 57.039062 37.183594 57.449219 36.085938 C 58.382812 36.050781 57.945312 36.015625 58.496094 35.734375 L 58.523438 35.722656 L 58.582031 35.699219 C 58.910156 35.550781 59.332031 35.515625 59.757812 35.371094 C 61.316406 34.847656 61.953125 35.109375 63.085938 35.574219 C 63.964844 35.9375 66.617188 35.945312 66.8125 37.058594 C 66.175781 37.726562 65.566406 37.242188 64.644531 37.296875 C 64.816406 38.160156 64.886719 38.160156 65.667969 38.398438 C 65.792969 37.988281 65.609375 38.148438 65.824219 37.886719 C 66.078125 37.945312 66.332031 37.988281 66.585938 38.035156 C 66.84375 37.164062 67.140625 37.289062 68.003906 37.183594 C 67.863281 36.582031 67.707031 36.753906 68.03125 36.277344 C 68.925781 36.371094 68.203125 36.289062 68.640625 37.003906 C 69.265625 36.925781 69.875 36.230469 70.738281 36.140625 C 71.277344 36.085938 71.25 36.289062 72.015625 36.210938 C 72.636719 36.140625 72.609375 35.914062 73.234375 36.175781 C 73.457031 35.757812 73.234375 35.765625 73.785156 35.664062 C 74.632812 35.519531 75.371094 36.039062 76.191406 36.152344 C 75.585938 35.40625 75.003906 35.550781 75.753906 34.304688 C 76.703125 34.113281 76.789062 34.246094 77.199219 34.964844 C 77.433594 34.832031 77.53125 34.699219 77.648438 34.632812 Z M 29.992188 95.835938 C 28.519531 95.191406 27.082031 94.476562 25.6875 93.699219 C 25.667969 93.640625 25.652344 93.578125 25.640625 93.503906 C 25.429688 92.246094 25.96875 92.109375 25.371094 90.007812 C 24.980469 88.621094 25.136719 85.332031 24.722656 83.644531 C 24.65625 83.375 24.578125 83.148438 24.480469 82.972656 C 24.097656 82.339844 23.160156 82.046875 22.410156 81.535156 C 22.367188 81.523438 22.339844 81.511719 22.328125 81.488281 C 21.292969 80.761719 20.3125 77.914062 19.492188 76.847656 C 19.109375 76.335938 18.871094 76.5625 18.699219 75.757812 C 18.515625 75.023438 18.796875 75.148438 19.039062 74.535156 C 17.777344 72.21875 20.667969 72.253906 20.074219 69.472656 C 19.945312 68.964844 19.578125 68.25 19.265625 68.023438 C 18.671875 68.285156 18.953125 68.429688 18.644531 68.929688 C 18.164062 68.65625 17.679688 68.382812 17.214844 68.113281 C 15.753906 66.707031 16.53125 67.726562 16.121094 66.808594 C 15.242188 64.878906 14.40625 65.957031 13.359375 65.003906 C 12.890625 64.605469 12.804688 63.984375 12.027344 64.097656 C 10.851562 64.257812 11.503906 64.4375 10.285156 63.867188 C 9.25 63.382812 8.171875 62.816406 7.449219 62.15625 C 7.421875 61.136719 7.789062 61.089844 7.152344 60.136719 C 7.039062 59.960938 6.914062 59.796875 6.785156 59.640625 C 8.777344 50.566406 13.550781 42.542969 20.167969 36.5 C 20.683594 36.679688 21.363281 36.558594 21.875 36.539062 C 22.058594 36.199219 22.171875 35.902344 22.496094 35.777344 C 22.625 35.734375 22.78125 35.722656 22.992188 35.734375 C 23.019531 35.902344 23.0625 36.074219 23.105469 36.242188 C 23.105469 36.253906 23.136719 36.367188 23.121094 36.347656 C 23.136719 36.324219 23.148438 36.414062 23.164062 36.445312 C 24.054688 35.925781 23.304688 35.914062 23.785156 34.972656 C 23.035156 34.824219 23.132812 34.914062 22.667969 34.4375 C 23.121094 33.9375 23.996094 33.769531 24.648438 33.816406 C 24.605469 34.269531 24.394531 34.257812 24.566406 34.644531 C 25.074219 34.324219 25.429688 33.476562 26.25 33.632812 C 26.40625 33.746094 26.59375 33.847656 26.761719 33.949219 C 26.335938 34.347656 25.699219 34.371094 25.148438 34.597656 C 24.90625 37.058594 25.925781 34.996094 25.585938 36.6875 C 26.195312 36.640625 26.789062 36.199219 27.015625 35.746094 C 26.789062 35.449219 26.464844 35.449219 26.28125 35.097656 C 26.421875 34.644531 26.726562 34.300781 27.160156 34.09375 C 27.449219 33.957031 27.796875 33.882812 28.195312 33.882812 C 32.699219 33.917969 30.558594 34.121094 31.949219 34.757812 C 32.257812 34.894531 32.8125 34.960938 32.996094 35.234375 C 33.28125 35.664062 33.011719 36.074219 33.464844 36.414062 C 33.859375 36.707031 33.917969 36.402344 34.441406 37.0625 C 34.328125 37.433594 34.058594 37.820312 33.507812 37.832031 C 32.742188 37.84375 33.195312 37.320312 32.371094 37.402344 C 32.386719 38.171875 33.152344 38.46875 32.441406 38.886719 C 31.820312 39.261719 32.214844 38.75 31.75 39.011719 C 31.734375 39.023438 31.691406 39.046875 31.679688 39.058594 C 31.652344 39.082031 31.621094 39.117188 31.609375 39.136719 C 31.523438 39.230469 31.453125 39.308594 31.382812 39.390625 C 30.25 39.082031 30.460938 39.21875 29.78125 38.46875 C 29.527344 38.1875 29.484375 38.117188 29.03125 38.152344 C 28.746094 38.164062 28.378906 38.289062 28.109375 38.039062 C 28.664062 37.347656 28.933594 38.015625 29.738281 37.605469 C 29.882812 37.539062 30.773438 36.847656 30.914062 36.6875 C 30.675781 36.140625 30.886719 36.59375 30.535156 36.242188 C 29.742188 35.4375 29.511719 35.640625 28.4375 35.640625 C 27.933594 36.222656 27.554688 36.9375 27.007812 37.253906 C 26.675781 37.445312 26.28125 37.488281 25.757812 37.265625 C 26 38.242188 26.625 37.492188 26.679688 38.671875 C 26.269531 38.59375 26.054688 38.386719 25.632812 38.535156 C 24.722656 38.875 25.53125 38.839844 25.601562 39.023438 C 25.601562 39.035156 26.027344 39.082031 25.601562 39.238281 C 25.132812 39.410156 25.53125 39.148438 24.625 38.613281 C 24.753906 38.386719 24.878906 38.148438 25.007812 37.910156 C 24.273438 38.140625 23.351562 38.503906 22.488281 38.921875 C 21.507812 39.410156 20.585938 39.964844 20.035156 40.476562 C 20.019531 41.328125 20.175781 40.757812 20.261719 41.769531 C 21.578125 41.847656 21.152344 42.246094 22.472656 42.621094 C 22.726562 42.691406 23.054688 42.757812 23.449219 42.824219 C 23.449219 43.460938 22.882812 43.9375 23.277344 44.59375 C 24.199219 45.242188 24.226562 43.980469 24.453125 43.175781 C 27.574219 42.527344 26.070312 41.609375 26.875 39.894531 C 26.996094 39.636719 27.167969 39.363281 27.414062 39.070312 C 27.65625 39.082031 28.632812 39.183594 28.847656 39.226562 C 29.554688 39.351562 29.171875 39.523438 29.9375 39.863281 C 29.921875 40.476562 29.613281 41.269531 30.519531 41.125 C 31.214844 41 31.058594 40.453125 31.90625 40.316406 C 32.289062 41.214844 32.191406 41.601562 32.359375 42.675781 C 34.402344 43.472656 33.492188 44.117188 33.097656 45.605469 C 33.351562 45.730469 33.621094 45.84375 33.890625 45.957031 C 33.875 46.386719 33.859375 46.808594 33.847656 47.230469 C 33.804688 47.230469 31.664062 46.761719 31.523438 46.71875 C 31.847656 45.789062 32.445312 45.777344 32.828125 44.824219 C 32.0625 44.960938 32.117188 45.195312 31.566406 45.367188 C 31.070312 45.515625 30.6875 45.414062 30.164062 45.480469 C 29.980469 46.09375 30.148438 44.949219 30.207031 45.730469 C 30.234375 46.023438 30.378906 45.742188 30.179688 46.058594 C 29.46875 45.730469 29.710938 44.957031 28.394531 45.671875 C 28.691406 45.808594 28.988281 45.933594 29.300781 46.058594 C 29.257812 46.929688 29.1875 46.273438 29.003906 46.851562 C 28.550781 48.339844 30.234375 47.417969 30.675781 47.339844 C 30.5625 48.125 30.078125 48.125 29.398438 48.339844 C 28.648438 48.566406 28.421875 48.871094 27.828125 49.007812 C 27.828125 48.078125 27.6875 48.859375 28.09375 48.214844 C 27.5 48.269531 27.0625 48.542969 26.496094 48.78125 L 26.4375 48.804688 C 25.710938 49.101562 25.601562 49.144531 25.515625 50.074219 C 24.894531 50.265625 24.171875 50.484375 23.730469 50.9375 C 23.292969 51.359375 22.851562 51.777344 22.425781 52.183594 C 22.386719 52.21875 22.355469 52.253906 22.328125 52.277344 C 22.484375 53.445312 22.328125 53.46875 21.621094 53.921875 C 21.023438 54.308594 20.828125 54.296875 20.273438 54.785156 C 18.503906 56.371094 19.355469 55.632812 19.453125 58.367188 C 19.082031 58.257812 18.730469 58.128906 18.390625 58.007812 C 18.121094 56.191406 18.488281 56.792969 17.03125 56.371094 C 15.457031 55.917969 15.667969 56.691406 15.015625 56.824219 C 14.292969 56.984375 13.941406 56.167969 12.890625 56.847656 C 12.3125 57.246094 11.757812 57.507812 11.617188 58.207031 C 11.449219 59.058594 11.066406 59.683594 11.121094 60.625 C 11.222656 63.179688 13.542969 63.324219 14.140625 62.136719 C 14.535156 61.339844 14.4375 60.910156 15.726562 61.113281 C 15.851562 61.792969 15.65625 62.292969 15.484375 62.816406 C 15.371094 63.121094 15.058594 63.675781 15.214844 64.097656 C 16.136719 64.472656 16.164062 63.769531 17.382812 64.496094 C 17.46875 65.707031 16.832031 67.070312 17.765625 67.773438 C 18.488281 68.304688 18.53125 67.832031 19.167969 67.71875 C 19.875 67.59375 19.75 68.035156 20.402344 68.136719 C 20.769531 67.683594 20.613281 67.96875 20.855469 67.410156 C 21.28125 66.449219 21.394531 66.902344 22.398438 66.3125 C 22.496094 66.253906 22.582031 66.195312 22.683594 66.128906 C 22.796875 66.367188 22.921875 66.59375 23.035156 66.820312 C 23.773438 65.949219 23.859375 66.800781 24.707031 67.039062 C 25.074219 67.136719 25.335938 67.171875 25.535156 67.175781 C 26.152344 67.183594 26.214844 66.882812 27.058594 67.183594 C 27.160156 67.230469 27.289062 67.261719 27.402344 67.296875 C 27.414062 67.296875 27.457031 67.320312 27.457031 67.34375 C 27.472656 67.355469 27.511719 67.390625 27.527344 67.402344 C 27.667969 67.558594 27.683594 67.71875 27.796875 67.890625 C 28.378906 68.445312 28.960938 69 29.527344 69.546875 C 30.644531 69.988281 30.644531 69.160156 31.921875 70.394531 C 32.457031 70.90625 32.21875 70.894531 32.515625 71.550781 C 32.558594 71.65625 32.644531 71.757812 32.699219 71.882812 C 32.8125 72.1875 32.941406 72.484375 33.066406 72.777344 C 33.648438 73.539062 34.441406 73.0625 35.25 73.84375 C 35.714844 74.296875 35.363281 74.164062 36.398438 74.34375 C 37.996094 74.605469 37.375 74.457031 38.59375 75.375 C 39.0625 75.714844 39.171875 75.523438 39.613281 75.816406 C 40.222656 76.667969 40.066406 77.589844 39.558594 78.335938 C 37.984375 80.628906 38.523438 80.253906 38.449219 82.070312 C 38.394531 83.113281 38.097656 85.269531 37.117188 85.53125 C 33.5625 86.527344 35.628906 87.222656 34.695312 88.980469 C 34.425781 89.480469 34.226562 89.601562 34.058594 90 C 33.351562 91.65625 33.847656 92.214844 31.75 91.839844 C 31.949219 92.191406 31.820312 91.953125 32.019531 92.269531 C 32.640625 93.234375 32.742188 93.960938 31.464844 94.195312 C 30.402344 94.402344 30.855469 94.195312 30.757812 95.375 C 30.347656 95.546875 30.164062 95.375 29.894531 95.648438 Z M 20.65625 36.0625 C 20.929688 36.027344 20.929688 35.90625 21.644531 35.734375 C 21.589844 35.496094 21.546875 35.496094 21.488281 35.40625 L 21.46875 35.359375 C 21.195312 35.589844 20.921875 35.828125 20.65625 36.0625 Z M 58.527344 49.21875 L 58.496094 49.199219 C 58.398438 49.132812 58.300781 49.0625 58.214844 48.984375 C 57.59375 48.429688 57.464844 47.929688 56.769531 48.054688 C 56.753906 48.578125 56.828125 48.597656 57.082031 48.9375 C 58.042969 50.140625 57.746094 49.734375 58.496094 50.175781 L 58.523438 50.191406 C 58.703125 50.292969 58.910156 50.4375 59.191406 50.640625 C 58.226562 51.492188 59.121094 51.582031 58.523438 51.867188 L 58.496094 51.878906 C 58.441406 51.902344 58.382812 51.925781 58.34375 51.945312 C 58.144531 51.445312 58.582031 51.6875 58.074219 50.960938 C 57.789062 50.585938 57.519531 50.472656 57.082031 50.265625 C 55.976562 49.746094 56.117188 49.335938 55.4375 48.65625 C 54.671875 48.679688 54.84375 48.917969 54.304688 49.191406 C 53.652344 49.507812 53.753906 49.132812 52.988281 49.199219 C 52.363281 50.300781 53.253906 49.382812 52.121094 50.289062 C 50.761719 51.34375 51.882812 52.445312 49.699219 52.777344 C 49.542969 52.796875 49.488281 52.777344 49.332031 52.832031 C 48.921875 52.976562 49.160156 52.855469 48.921875 53.09375 C 49.105469 53.523438 48.851562 53.453125 49.585938 53.558594 C 50.933594 53.738281 51.101562 52.910156 52.082031 52.707031 C 52.5625 52.605469 55.582031 52.480469 55.792969 52.535156 C 56.445312 53.261719 55.90625 53.773438 55.90625 54.386719 C 56.617188 54.757812 57.621094 54.851562 58.03125 55.238281 C 58.5 55.679688 58.273438 55.609375 58.5 55.6875 L 58.527344 55.699219 C 58.613281 55.722656 58.738281 55.765625 58.953125 55.847656 C 59.519531 56.042969 59.492188 56.15625 60.101562 56.199219 C 60.652344 54.351562 60.085938 54.542969 62.75 55.394531 C 65.527344 56.304688 64.277344 55.472656 65.457031 55.597656 C 66.039062 55.65625 65.882812 55.835938 66.6875 55.734375 C 66.84375 55.417969 67.992188 52.535156 66.503906 52.898438 C 66.0625 53.011719 66.363281 53.167969 65.738281 53.011719 C 65.085938 52.84375 65.710938 52.714844 64.988281 52.816406 C 64.277344 52.921875 63.429688 53.546875 62.878906 51.402344 C 62.664062 50.628906 62.28125 49.960938 61.402344 51.128906 C 61.628906 51.523438 61.785156 51.558594 62.042969 51.945312 C 61.972656 52.058594 61.730469 52.339844 61.644531 52.433594 C 61.164062 52.910156 61.84375 52.683594 61.0625 52.785156 C 60.640625 52.464844 60.726562 52.058594 60.3125 51.492188 C 59.589844 50.433594 60.058594 50.921875 59.691406 49.914062 C 59.402344 49.660156 58.917969 49.46875 58.527344 49.21875 Z M 73.65625 79.765625 C 73.035156 80.082031 72.949219 80.808594 72.480469 81.214844 C 71.972656 81.679688 71.292969 81.46875 71.09375 82.328125 C 70.839844 83.40625 71.519531 83.078125 70.769531 84.484375 C 70.5 85.003906 70.484375 86.308594 70.894531 86.695312 C 72.128906 87.886719 72.792969 84.882812 73.078125 83.941406 C 73.289062 83.269531 73.488281 82.511719 73.714844 81.886719 C 73.941406 81.214844 74.265625 80.628906 73.65625 79.765625 Z M 71.617188 48.109375 C 71.71875 49.496094 72.539062 50.027344 73.121094 50.664062 C 73.050781 51.320312 72.890625 51.152344 72.90625 52.070312 C 73.601562 52.570312 74.109375 52.875 75.019531 52.625 C 75.144531 51.515625 74.792969 51.570312 74.453125 50.808594 C 74.507812 50.71875 74.664062 50.605469 74.691406 50.585938 C 74.949219 50.242188 74.820312 50.71875 74.949219 50.140625 C 74.28125 49.925781 73.207031 49.246094 73.121094 48.347656 C 73.445312 48.089844 73.347656 48.246094 73.589844 48.089844 C 74.113281 47.746094 73.714844 48.269531 74.027344 47.691406 C 73.757812 47.167969 73.460938 47.078125 72.808594 47.339844 C 72.527344 47.453125 71.773438 47.984375 71.617188 48.109375 Z M 65.824219 48.472656 C 65.382812 47.863281 65.410156 47.554688 64.5625 47.53125 C 64.222656 47.894531 63.824219 48.4375 63.640625 48.996094 C 63.359375 49.835938 63.554688 49.253906 63.585938 50.164062 C 63.570312 50.199219 63.585938 50.246094 63.585938 50.277344 C 63.570312 50.820312 63.441406 50.175781 63.527344 50.675781 C 64.195312 50.539062 63.683594 50.550781 64.179688 50.390625 C 64.648438 50.230469 66.078125 49.800781 66.492188 49.902344 C 67.46875 50.128906 68.289062 50.902344 69.394531 50.128906 C 69.335938 49.144531 68.148438 48.769531 67.324219 48.335938 C 67.367188 47.429688 67.609375 48.144531 67.550781 47.269531 C 67.269531 47.257812 67.097656 47.214844 66.828125 47.328125 C 66.191406 47.609375 66.546875 47.691406 66.546875 47.792969 C 66.574219 48.28125 67.183594 47.691406 66.53125 48.292969 C 66.347656 48.449219 66.050781 48.449219 65.824219 48.472656 Z M 49.273438 41.597656 C 49.246094 43.1875 49.796875 42.652344 50.320312 43.4375 C 50.082031 44.105469 50.039062 43.585938 49.769531 44.277344 C 49.53125 44.855469 49.828125 44.332031 49.671875 45.34375 C 50.082031 45.367188 50.691406 45.21875 51.230469 45.171875 C 51.996094 45.105469 51.980469 45.035156 52.25 44.253906 C 51.824219 43.730469 51.398438 43.210938 50.960938 42.6875 C 50.40625 41.847656 50.960938 42.425781 50.789062 41.722656 C 50.664062 41.472656 50.550781 41.222656 50.4375 40.972656 C 49.699219 41.226562 49.769531 41.15625 49.273438 41.597656 Z M 49.273438 41.597656 "/>
<path style=" stroke:none;fill-rule:nonzero;fill:rgb(98.431373%,70.588235%,16.078431%);fill-opacity:1;" d="M 77.277344 38.785156 L 74.652344 36.160156 C 73.261719 36.691406 71.515625 38.976562 70.828125 40.417969 L 71.039062 40.632812 L 73.023438 42.613281 C 74.464844 41.921875 76.75 40.179688 77.277344 38.785156 Z M 77.277344 38.785156 "/>
<path style=" stroke:none;fill-rule:nonzero;fill:rgb(100%,100%,100%);fill-opacity:1;" d="M 77.277344 38.785156 L 74.652344 36.160156 C 74.332031 36.285156 73.992188 36.5 73.648438 36.777344 L 76.660156 39.789062 C 76.9375 39.445312 77.15625 39.105469 77.277344 38.785156 Z M 77.277344 38.785156 "/>
<path style=" stroke:none;fill-rule:nonzero;fill:rgb(98.431373%,70.588235%,16.078431%);fill-opacity:1;" d="M 80.234375 47.1875 L 77.609375 44.5625 C 76.21875 45.089844 74.472656 47.375 73.785156 48.816406 L 75.980469 51.011719 C 77.421875 50.324219 79.707031 48.578125 80.234375 47.1875 Z M 80.234375 47.1875 "/>
<path style=" stroke:none;fill-rule:nonzero;fill:rgb(100%,100%,100%);fill-opacity:1;" d="M 80.234375 47.1875 L 77.609375 44.5625 C 77.289062 44.683594 76.949219 44.902344 76.605469 45.179688 L 79.617188 48.191406 C 79.894531 47.847656 80.113281 47.507812 80.234375 47.1875 Z M 80.234375 47.1875 "/>
<path style=" stroke:none;fill-rule:nonzero;fill:rgb(98.431373%,70.588235%,16.078431%);fill-opacity:1;" d="M 56.117188 17.628906 L 58.742188 20.253906 C 58.214844 21.644531 55.929688 23.390625 54.488281 24.078125 L 52.292969 21.882812 C 52.980469 20.445312 54.726562 18.15625 56.117188 17.628906 L 56.121094 17.628906 Z M 56.117188 17.628906 "/>
<path style=" stroke:none;fill-rule:nonzero;fill:rgb(100%,100%,100%);fill-opacity:1;" d="M 56.117188 17.628906 L 58.742188 20.253906 C 58.621094 20.574219 58.40625 20.914062 58.128906 21.257812 L 55.113281 18.246094 C 55.457031 17.964844 55.796875 17.75 56.121094 17.628906 Z M 56.117188 17.628906 "/>
<path style=" stroke:none;fill-rule:nonzero;fill:rgb(98.431373%,70.588235%,16.078431%);fill-opacity:1;" d="M 47.71875 14.671875 L 50.34375 17.296875 C 49.816406 18.6875 47.53125 20.433594 46.089844 21.121094 L 43.894531 18.925781 C 44.582031 17.484375 46.328125 15.199219 47.71875 14.671875 Z M 47.71875 14.671875 "/>
<path style=" stroke:none;fill-rule:nonzero;fill:rgb(100%,100%,100%);fill-opacity:1;" d="M 47.71875 14.671875 L 48.148438 15.101562 L 49.917969 16.867188 L 50.34375 17.296875 C 50.222656 17.617188 50.007812 17.957031 49.730469 18.300781 L 46.71875 15.289062 C 47.058594 15.007812 47.398438 14.792969 47.71875 14.671875 Z M 47.71875 14.671875 "/>
<path style=" stroke:none;fill-rule:nonzero;fill:rgb(100%,100%,100%);fill-opacity:1;" d="M 41.445312 54.492188 L 46.628906 61.859375 L 48.28125 59.863281 L 45.347656 52.113281 C 45.714844 51.796875 45.023438 52.425781 46.539062 51.0625 C 48.050781 49.703125 54.703125 43.585938 60.726562 38.691406 L 78.078125 63.21875 L 79.660156 61.636719 L 70.070312 31.066406 C 73.988281 27.832031 77.023438 25.257812 77.839844 24.324219 C 80.335938 21.46875 82.597656 17.660156 80.8125 14.09375 C 77.246094 12.308594 73.4375 14.570312 70.585938 17.066406 C 69.648438 17.882812 67.074219 20.917969 63.84375 24.835938 L 33.273438 15.246094 L 31.6875 16.828125 L 56.214844 34.179688 C 51.316406 40.203125 45.203125 46.855469 43.839844 48.367188 C 42.476562 49.882812 43.109375 49.191406 42.792969 49.558594 L 35.042969 46.625 L 33.042969 48.277344 L 40.414062 53.460938 C 39.613281 54.835938 40.070312 55.292969 41.445312 54.492188 Z M 41.445312 54.492188 "/>
<path style=" stroke:none;fill-rule:nonzero;fill:rgb(78.431373%,79.215686%,80%);fill-opacity:1;" d="M 41.445312 54.492188 L 46.628906 61.859375 L 47.027344 61.378906 L 42.003906 54.109375 Z M 41.445312 54.492188 "/>
<path style=" stroke:none;fill-rule:nonzero;fill:rgb(78.431373%,79.215686%,80%);fill-opacity:1;" d="M 33.527344 47.878906 L 33.046875 48.277344 L 40.414062 53.460938 L 40.796875 52.902344 Z M 33.527344 47.878906 "/>
<path style=" stroke:none;fill-rule:nonzero;fill:rgb(78.431373%,79.215686%,80%);fill-opacity:1;" d="M 60.726562 38.6875 L 78.078125 63.21875 L 78.6875 62.605469 L 61.753906 37.855469 L 60.726562 38.691406 Z M 60.726562 38.6875 "/>
<path style=" stroke:none;fill-rule:nonzero;fill:rgb(78.431373%,79.215686%,80%);fill-opacity:1;" d="M 32.300781 16.21875 L 31.691406 16.828125 L 56.214844 34.179688 L 57.054688 33.152344 L 32.296875 16.21875 Z M 32.300781 16.21875 "/>
<path style=" stroke:none;fill-rule:nonzero;fill:rgb(8.235294%,74.117647%,69.411765%);fill-opacity:1;" d="M 79.320312 15.582031 C 78.972656 15.230469 78.546875 14.984375 78.074219 14.835938 L 77.789062 15.636719 C 78.085938 15.8125 78.367188 16.03125 78.621094 16.285156 C 78.875 16.539062 79.09375 16.820312 79.269531 17.117188 L 80.070312 16.832031 C 79.921875 16.359375 79.675781 15.933594 79.324219 15.582031 Z M 77.4375 14.703125 C 76.710938 14.613281 75.910156 14.730469 75.121094 15.035156 C 75.832031 14.972656 76.546875 15.078125 77.207031 15.34375 Z M 79.5625 17.699219 C 79.828125 18.359375 79.933594 19.074219 79.871094 19.785156 C 80.175781 18.996094 80.292969 18.195312 80.203125 17.46875 Z M 79.5625 17.699219 "/>
<path style=" stroke:none;fill-rule:nonzero;fill:rgb(100%,100%,100%);fill-opacity:1;" d="M 36.105469 59.292969 L 36.109375 59.289062 L 36.214844 59.1875 L 36.316406 59.085938 L 36.632812 58.78125 L 36.847656 58.574219 L 36.953125 58.472656 L 37.0625 58.371094 L 37.171875 58.265625 L 37.277344 58.160156 L 37.714844 57.738281 L 37.828125 57.628906 L 38.046875 57.414062 L 38.160156 57.308594 L 38.273438 57.199219 L 38.496094 56.980469 L 38.609375 56.871094 L 38.835938 56.648438 L 39.066406 56.425781 L 39.183594 56.3125 L 39.414062 56.082031 L 38.769531 55.425781 L 38.652344 55.539062 L 38.539062 55.652344 L 38.421875 55.765625 L 38.308594 55.878906 L 38.082031 56.097656 L 37.96875 56.210938 L 37.855469 56.320312 L 37.746094 56.429688 L 37.519531 56.644531 L 37.410156 56.753906 L 37.1875 56.96875 L 36.640625 57.496094 L 36.535156 57.601562 L 36.425781 57.703125 L 36.316406 57.808594 L 36.210938 57.910156 L 36.105469 58.015625 L 35.890625 58.21875 L 35.679688 58.421875 L 35.578125 58.523438 L 35.472656 58.625 L 35.464844 58.628906 Z M 87.679688 58.914062 L 87.570312 59.199219 L 87.460938 59.480469 L 87.351562 59.757812 L 87.242188 60.03125 L 87.132812 60.300781 L 86.914062 60.824219 L 86.804688 61.082031 L 86.691406 61.332031 L 86.582031 61.582031 L 86.472656 61.828125 L 86.359375 62.066406 L 86.25 62.304688 L 86.140625 62.535156 L 86.132812 62.546875 L 86.960938 62.953125 L 86.96875 62.9375 L 87.082031 62.699219 L 87.308594 62.207031 L 87.535156 61.707031 L 87.648438 61.445312 L 87.761719 61.1875 L 87.871094 60.917969 L 87.984375 60.652344 L 88.097656 60.375 L 88.207031 60.097656 L 88.320312 59.816406 L 88.429688 59.53125 L 88.542969 59.242188 Z M 84.851562 64.949219 L 84.792969 65.042969 L 84.679688 65.230469 L 84.453125 65.589844 L 84.339844 65.765625 L 84.226562 65.9375 L 84 66.273438 L 83.773438 66.59375 L 83.660156 66.75 L 83.542969 66.902344 L 83.429688 67.050781 L 83.203125 67.339844 L 83.085938 67.480469 L 82.972656 67.617188 L 82.855469 67.753906 L 82.742188 67.882812 L 82.625 68.011719 L 82.398438 68.261719 L 82.164062 68.496094 L 82.144531 68.519531 L 82.789062 69.175781 L 82.820312 69.148438 L 82.941406 69.023438 L 83.066406 68.894531 L 83.308594 68.628906 L 83.433594 68.492188 L 83.554688 68.355469 L 83.796875 68.066406 L 83.917969 67.917969 L 84.039062 67.765625 L 84.15625 67.613281 L 84.277344 67.457031 L 84.398438 67.296875 L 84.515625 67.132812 L 84.636719 66.964844 L 84.753906 66.796875 L 84.875 66.625 L 84.992188 66.445312 L 85.109375 66.269531 L 85.226562 66.085938 L 85.34375 65.898438 L 85.464844 65.710938 L 85.582031 65.515625 L 85.636719 65.421875 L 84.847656 64.949219 Z M 80.074219 70.171875 L 80.070312 70.175781 L 79.835938 70.316406 L 79.71875 70.382812 L 79.597656 70.449219 L 79.480469 70.511719 L 79.363281 70.570312 L 79.242188 70.632812 L 79.125 70.6875 L 79.003906 70.742188 L 78.886719 70.796875 L 78.644531 70.898438 L 78.523438 70.945312 L 78.40625 70.992188 L 78.042969 71.121094 L 77.800781 71.199219 L 77.679688 71.234375 L 77.554688 71.269531 L 77.433594 71.304688 L 77.3125 71.335938 L 77.1875 71.367188 L 77.0625 71.394531 L 76.941406 71.425781 L 76.816406 71.449219 L 76.691406 71.476562 L 76.566406 71.5 L 76.445312 71.519531 L 76.320312 71.542969 L 76.191406 71.5625 L 75.941406 71.601562 L 75.933594 71.601562 L 76.050781 72.515625 L 76.066406 72.511719 L 76.203125 72.492188 L 76.46875 72.453125 L 76.605469 72.429688 L 76.738281 72.40625 L 76.875 72.378906 L 77.140625 72.324219 L 77.40625 72.261719 L 77.671875 72.191406 L 77.808594 72.15625 L 77.9375 72.121094 L 78.070312 72.078125 L 78.203125 72.039062 L 78.335938 71.996094 L 78.46875 71.949219 L 78.597656 71.902344 L 78.730469 71.855469 L 78.863281 71.804688 L 78.992188 71.75 L 79.125 71.695312 L 79.253906 71.640625 L 79.386719 71.582031 L 79.515625 71.519531 L 79.644531 71.460938 L 79.773438 71.394531 L 79.90625 71.328125 L 80.292969 71.117188 L 80.421875 71.039062 L 80.550781 70.964844 L 80.550781 70.960938 L 80.070312 70.175781 Z M 73.238281 71.753906 L 73.09375 71.753906 L 72.554688 71.746094 L 72.421875 71.742188 L 72.285156 71.738281 L 72.152344 71.734375 L 71.742188 71.71875 L 71.605469 71.714844 L 71.46875 71.707031 L 71.332031 71.703125 L 71.054688 71.691406 L 70.917969 71.6875 L 70.777344 71.679688 L 70.5 71.671875 L 70.082031 71.652344 L 69.800781 71.644531 L 69.65625 71.636719 L 69.375 71.628906 L 69.089844 71.621094 L 68.949219 71.617188 L 68.660156 71.609375 L 68.644531 71.609375 L 68.628906 72.53125 L 68.785156 72.53125 L 69.066406 72.539062 L 69.203125 72.542969 L 69.488281 72.554688 L 69.625 72.558594 L 70.046875 72.574219 L 71.296875 72.625 L 71.570312 72.632812 L 71.710938 72.640625 L 71.847656 72.644531 L 72.125 72.652344 L 72.539062 72.664062 L 73.085938 72.671875 L 73.222656 72.675781 L 73.238281 72.675781 L 73.242188 71.753906 Z M 65.839844 71.671875 L 65.71875 71.679688 L 65.570312 71.695312 L 65.417969 71.707031 L 65.269531 71.722656 L 64.964844 71.753906 L 64.8125 71.773438 L 64.664062 71.792969 L 64.507812 71.8125 L 63.898438 71.90625 L 63.742188 71.9375 L 63.589844 71.964844 L 63.433594 71.996094 L 63.28125 72.027344 L 63.125 72.058594 L 62.96875 72.09375 L 62.34375 72.25 L 62.1875 72.292969 L 61.875 72.386719 L 61.714844 72.433594 L 61.558594 72.484375 L 61.398438 72.539062 L 61.242188 72.59375 L 61.21875 72.601562 L 61.53125 73.46875 L 61.542969 73.460938 L 61.695312 73.410156 L 62.140625 73.269531 L 62.585938 73.140625 L 62.882812 73.0625 L 63.03125 73.027344 L 63.175781 72.992188 L 63.472656 72.929688 L 63.617188 72.898438 L 63.761719 72.871094 L 63.910156 72.84375 L 64.203125 72.792969 L 64.347656 72.769531 L 64.496094 72.746094 L 64.929688 72.6875 L 65.078125 72.671875 L 65.21875 72.65625 L 65.363281 72.640625 L 65.511719 72.625 L 65.652344 72.613281 L 65.796875 72.601562 L 65.917969 72.589844 L 65.84375 71.671875 Z M 58.632812 73.769531 L 58.507812 73.835938 L 58.34375 73.929688 L 58.183594 74.027344 L 58.019531 74.125 L 57.855469 74.226562 L 57.527344 74.4375 L 57.199219 74.65625 L 57.035156 74.769531 L 56.871094 74.886719 L 56.703125 75.007812 L 56.539062 75.128906 L 56.375 75.253906 L 56.210938 75.382812 L 56.046875 75.515625 L 55.878906 75.648438 L 55.714844 75.785156 L 55.546875 75.921875 L 55.378906 76.0625 L 55.214844 76.210938 L 55.046875 76.359375 L 54.882812 76.507812 L 54.839844 76.546875 L 55.46875 77.222656 L 55.503906 77.191406 L 55.664062 77.042969 L 55.984375 76.761719 L 56.144531 76.625 L 56.300781 76.492188 L 56.621094 76.234375 L 56.777344 76.109375 L 56.9375 75.988281 L 57.09375 75.867188 L 57.25 75.75 L 57.410156 75.636719 L 57.722656 75.417969 L 58.035156 75.207031 L 58.191406 75.105469 L 58.347656 75.007812 L 58.503906 74.914062 L 58.65625 74.820312 L 58.8125 74.726562 L 58.964844 74.636719 L 59.089844 74.570312 Z M 52.878906 78.554688 L 52.863281 78.570312 L 52.691406 78.761719 L 52.527344 78.953125 L 52.363281 79.140625 L 52.195312 79.324219 L 52.03125 79.507812 L 51.867188 79.6875 L 51.539062 80.039062 L 51.378906 80.210938 L 51.050781 80.554688 L 50.730469 80.882812 L 50.40625 81.207031 L 50.085938 81.519531 L 49.765625 81.824219 L 49.734375 81.851562 L 50.363281 82.527344 L 50.394531 82.496094 L 50.722656 82.183594 L 50.886719 82.023438 L 51.054688 81.863281 L 51.21875 81.699219 L 51.546875 81.363281 L 51.714844 81.195312 L 51.878906 81.023438 L 52.046875 80.847656 L 52.210938 80.671875 L 52.378906 80.492188 L 52.546875 80.308594 L 52.714844 80.128906 L 53.050781 79.753906 L 53.386719 79.371094 L 53.550781 79.183594 L 53.566406 79.164062 Z M 47.671875 83.632812 L 47.5625 83.722656 L 47.410156 83.84375 L 47.253906 83.960938 L 47.101562 84.078125 L 46.796875 84.304688 L 46.492188 84.523438 L 46.339844 84.628906 L 46.191406 84.734375 L 46.039062 84.835938 L 45.890625 84.9375 L 45.738281 85.035156 L 45.589844 85.132812 L 45.144531 85.414062 L 44.996094 85.503906 L 44.847656 85.589844 L 44.558594 85.761719 L 44.410156 85.84375 L 43.976562 86.078125 L 43.90625 86.113281 L 44.328125 86.933594 L 44.40625 86.894531 L 44.558594 86.8125 L 44.707031 86.730469 L 44.859375 86.648438 L 45.011719 86.558594 L 45.164062 86.472656 L 45.316406 86.382812 L 45.472656 86.292969 L 45.777344 86.105469 L 45.933594 86.007812 L 46.089844 85.90625 L 46.242188 85.808594 L 46.867188 85.386719 L 47.179688 85.160156 L 47.339844 85.046875 L 47.496094 84.929688 L 47.65625 84.8125 L 47.8125 84.691406 L 47.972656 84.570312 L 48.132812 84.445312 L 48.242188 84.359375 Z M 41.4375 87.171875 L 41.316406 87.210938 L 41.183594 87.253906 L 41.046875 87.296875 L 40.910156 87.335938 L 40.644531 87.414062 L 40.511719 87.449219 L 40.378906 87.480469 L 40.246094 87.515625 L 40.117188 87.546875 L 39.984375 87.574219 L 39.726562 87.628906 L 39.339844 87.699219 L 39.210938 87.71875 L 39.085938 87.738281 L 38.957031 87.757812 L 38.707031 87.789062 L 38.582031 87.800781 L 38.457031 87.816406 L 38.332031 87.824219 L 38.207031 87.835938 L 38.085938 87.84375 L 37.960938 87.847656 L 37.839844 87.855469 L 37.597656 87.863281 L 37.238281 87.863281 L 37.117188 87.859375 L 37.070312 87.859375 L 37.039062 88.777344 L 37.09375 88.78125 L 37.222656 88.785156 L 37.484375 88.785156 L 37.613281 88.78125 L 37.746094 88.777344 L 37.875 88.773438 L 38.007812 88.769531 L 38.140625 88.761719 L 38.273438 88.75 L 38.40625 88.742188 L 38.539062 88.730469 L 38.675781 88.71875 L 38.8125 88.703125 L 38.945312 88.6875 L 39.355469 88.628906 L 39.492188 88.605469 L 39.769531 88.558594 L 39.90625 88.53125 L 40.046875 88.503906 L 40.183594 88.472656 L 40.324219 88.441406 L 40.464844 88.40625 L 40.605469 88.375 L 40.746094 88.335938 L 40.886719 88.300781 L 41.03125 88.261719 L 41.171875 88.21875 L 41.460938 88.132812 L 41.601562 88.085938 L 41.722656 88.046875 L 41.441406 87.171875 Z M 34.460938 87.457031 L 34.414062 87.445312 L 34.203125 87.382812 L 33.992188 87.3125 L 33.890625 87.277344 L 33.785156 87.242188 L 33.378906 87.085938 L 33.175781 87 L 33.078125 86.957031 L 32.976562 86.914062 L 32.585938 86.726562 L 32.492188 86.679688 L 32.398438 86.628906 L 32.300781 86.578125 L 32.207031 86.527344 L 32.113281 86.472656 L 32.019531 86.421875 L 31.925781 86.367188 L 31.832031 86.308594 L 31.652344 86.199219 L 31.472656 86.082031 L 31.292969 85.960938 L 31.117188 85.839844 L 30.945312 85.714844 L 30.859375 85.648438 L 30.6875 85.519531 L 30.605469 85.453125 L 30.566406 85.421875 L 29.988281 86.136719 L 30.03125 86.171875 L 30.121094 86.246094 L 30.210938 86.316406 L 30.300781 86.382812 L 30.488281 86.523438 L 30.675781 86.65625 L 30.773438 86.722656 L 30.867188 86.785156 L 30.964844 86.851562 L 31.257812 87.039062 L 31.355469 87.097656 L 31.558594 87.214844 L 31.65625 87.273438 L 31.761719 87.332031 L 31.964844 87.441406 L 32.175781 87.550781 L 32.277344 87.601562 L 32.382812 87.652344 L 32.492188 87.703125 L 32.703125 87.796875 L 33.03125 87.9375 L 33.25 88.023438 L 33.363281 88.066406 L 33.472656 88.105469 L 33.585938 88.148438 L 33.699219 88.1875 L 33.8125 88.222656 L 33.929688 88.257812 L 34.15625 88.328125 L 34.203125 88.339844 Z M 28.679688 83.546875 L 28.640625 83.5 L 28.507812 83.332031 L 28.441406 83.25 L 28.378906 83.164062 L 28.3125 83.078125 L 28.25 82.996094 L 28.125 82.824219 L 28 82.648438 L 27.882812 82.472656 L 27.824219 82.386719 L 27.707031 82.207031 L 27.378906 81.667969 L 27.328125 81.574219 L 27.277344 81.484375 L 27.175781 81.296875 L 27.125 81.207031 L 27.027344 81.019531 L 26.886719 80.738281 L 26.757812 80.457031 L 26.671875 80.265625 L 26.628906 80.171875 L 26.589844 80.074219 L 26.550781 79.980469 L 26.472656 79.789062 L 26.441406 79.710938 L 25.582031 80.042969 L 25.617188 80.128906 L 25.65625 80.230469 L 25.699219 80.332031 L 25.742188 80.4375 L 25.828125 80.636719 L 25.871094 80.738281 L 26.011719 81.042969 L 26.0625 81.140625 L 26.109375 81.242188 L 26.160156 81.34375 L 26.261719 81.539062 L 26.3125 81.640625 L 26.363281 81.738281 L 26.582031 82.128906 L 26.695312 82.320312 L 26.753906 82.417969 L 26.8125 82.511719 L 26.871094 82.609375 L 26.933594 82.703125 L 26.992188 82.796875 L 27.054688 82.894531 L 27.117188 82.988281 L 27.179688 83.078125 L 27.242188 83.171875 L 27.375 83.359375 L 27.507812 83.539062 L 27.574219 83.632812 L 27.710938 83.8125 L 27.851562 83.992188 L 27.921875 84.078125 L 27.960938 84.125 L 28.675781 83.546875 Z M 25.710938 77.140625 C 25.445312 75.679688 25.402344 74.203125 25.722656 72.75 L 24.824219 72.550781 C 24.472656 74.105469 24.519531 75.746094 24.804688 77.304688 Z M 26.597656 70.25 C 27.222656 68.921875 28.152344 67.644531 29.078125 66.511719 L 28.367188 65.925781 C 27.398438 67.09375 26.414062 68.472656 25.769531 69.847656 Z M 30.886719 64.464844 L 30.894531 64.460938 L 31.050781 64.292969 L 31.128906 64.210938 L 31.371094 63.960938 L 31.453125 63.875 L 31.699219 63.621094 L 31.78125 63.535156 L 31.949219 63.363281 L 32.121094 63.191406 L 32.203125 63.105469 L 32.378906 62.933594 L 33.085938 62.226562 L 33.179688 62.136719 L 33.269531 62.046875 L 33.453125 61.867188 L 33.640625 61.683594 L 33.734375 61.59375 L 33.828125 61.5 L 34.015625 61.316406 L 34.113281 61.222656 L 34.117188 61.21875 L 33.476562 60.558594 L 33.46875 60.566406 L 33.277344 60.75 L 33.089844 60.9375 L 32.902344 61.117188 L 32.714844 61.300781 L 32.625 61.390625 L 32.441406 61.570312 L 32.347656 61.664062 L 32.257812 61.75 L 31.988281 62.019531 L 31.902344 62.109375 L 31.464844 62.546875 L 31.378906 62.636719 L 31.292969 62.722656 L 31.039062 62.980469 L 30.957031 63.066406 L 30.789062 63.238281 L 30.542969 63.496094 L 30.464844 63.578125 L 30.300781 63.75 L 30.222656 63.832031 L 30.214844 63.839844 L 30.886719 64.472656 Z M 30.886719 64.464844 "/>
</g>
</svg>
